<?xml version="1.0" encoding="UTF-8"?>
<!DOCTYPE svg PUBLIC "-//W3C//DTD SVG 1.1//EN" "http://www.w3.org/Graphics/SVG/1.1/DTD/svg11.dtd">
<svg xmlns="http://www.w3.org/2000/svg" version="1.1" width="512px" height="512px" style="shape-rendering:geometricPrecision; text-rendering:geometricPrecision; image-rendering:optimizeQuality; fill-rule:evenodd; clip-rule:evenodd" xmlns:xlink="http://www.w3.org/1999/xlink">
<defs>
        <linearGradient id="MyGradient">
          <stop  stop-color="#cf87fc" />
          <stop offset="90%" stop-color="#f1c9be" />
        </linearGradient>
      </defs>
<g><path style="opacity:0.956" fill="#cf87fc" d="M 96.5,-0.5 C 104.167,-0.5 111.833,-0.5 119.5,-0.5C 145.533,5.69718 162.367,21.6972 170,47.5C 171.359,57.1094 171.859,66.7761 171.5,76.5C 160.833,76.5 150.167,76.5 139.5,76.5C 139.666,69.4921 139.5,62.4921 139,55.5C 131.65,35.2406 117.483,27.7406 96.5,33C 81.5574,40.3599 74.3907,52.5265 75,69.5C 69.1338,78.5643 61.3005,80.731 51.5,76C 44.8139,69.9798 42.6473,62.4798 45,53.5C 50.8244,24.5123 67.9911,6.51228 96.5,-0.5 Z"/></g>
<g><path style="opacity:0.964" fill="url(#MyGradient)" d="M 310.5,80.5 C 352.552,79.416 380.052,98.7494 393,138.5C 399.088,167.396 391.588,192.063 370.5,212.5C 369.667,200.18 369.167,187.847 369,175.5C 362.935,148.767 346.268,134.1 319,131.5C 294.189,133.319 277.855,145.986 270,169.5C 268.921,183.8 268.088,198.134 267.5,212.5C 245.922,191.878 238.422,166.878 245,137.5C 255.109,104.884 276.943,85.884 310.5,80.5 Z"/></g>
<g><path style="opacity:0.978" fill="#cf87fc" d="M 26.5,105.5 C 80.8344,105.333 135.168,105.5 189.5,106C 196.882,107.049 201.382,111.216 203,118.5C 203.667,167.5 203.667,216.5 203,265.5C 201.167,271.333 197.333,275.167 191.5,277C 135.833,277.667 80.1667,277.667 24.5,277C 18.2236,275.058 14.3903,270.891 13,264.5C 12.3333,215.833 12.3333,167.167 13,118.5C 14.894,111.328 19.394,106.995 26.5,105.5 Z M 135.5,156.5 C 148.6,157.087 154.1,163.754 152,176.5C 151.333,177.833 150.667,179.167 150,180.5C 134.5,196 119,211.5 103.5,227C 97.8043,230.257 92.1376,230.257 86.5,227C 79,219.5 71.5,212 64,204.5C 59.1665,193.992 61.9998,186.492 72.5,182C 75.1667,181.333 77.8333,181.333 80.5,182C 85.6029,185.266 90.2696,189.1 94.5,193.5C 105.986,182.514 117.319,171.348 128.5,160C 130.925,158.787 133.259,157.621 135.5,156.5 Z"/></g>
<g><path style="opacity:0.986" fill="url(#MyGradient)" d="M 409.5,511.5 C 400.167,511.5 390.833,511.5 381.5,511.5C 357.664,507.331 337.164,496.664 320,479.5C 282,430.167 244,380.833 206,331.5C 200.012,319.01 201.845,307.844 211.5,298C 224.301,290.025 236.468,290.859 248,300.5C 262.425,319.681 277.091,338.681 292,357.5C 292.333,298.833 292.667,240.167 293,181.5C 295.777,162.73 306.61,154.563 325.5,157C 335,159.833 341.167,166 344,175.5C 344.333,206.5 344.667,237.5 345,268.5C 349.393,257.128 357.727,251.128 370,250.5C 384.86,252.36 393.527,260.693 396,275.5C 403.76,259.908 415.927,255.075 432.5,261C 439.675,265.18 444.175,271.347 446,279.5C 454.724,261.811 468.224,256.978 486.5,265C 491.578,268.737 495.078,273.57 497,279.5C 498.646,325.121 498.98,370.788 498,416.5C 491.023,469.306 461.523,500.973 409.5,511.5 Z"/></g>
<g><path style="opacity:0.969" fill="url(#MyGradient)" d="M 92.5,307.5 C 102.833,307.5 113.167,307.5 123.5,307.5C 123.333,340.502 123.5,373.502 124,406.5C 125.73,427.81 136.23,442.977 155.5,452C 159.057,453.408 162.724,454.408 166.5,455C 201.5,455.333 236.5,455.667 271.5,456C 279.045,466.256 286.712,476.423 294.5,486.5C 251.504,487.667 208.504,487.833 165.5,487C 125.355,480.522 101.188,457.355 93,417.5C 92.5,380.835 92.3333,344.168 92.5,307.5 Z"/></g>
</svg>
