<?xml version="1.0" encoding="UTF-8"?>
<!DOCTYPE svg PUBLIC "-//W3C//DTD SVG 1.1//EN" "http://www.w3.org/Graphics/SVG/1.1/DTD/svg11.dtd">
<svg xmlns="http://www.w3.org/2000/svg" version="1.1" width="512px" height="512px" style="shape-rendering:geometricPrecision; text-rendering:geometricPrecision; image-rendering:optimizeQuality; fill-rule:evenodd; clip-rule:evenodd" xmlns:xlink="http://www.w3.org/1999/xlink">
<defs>
        <linearGradient id="MyGradient">
          <stop  stop-color="#cf87fc" />
          <stop offset="90%" stop-color="#f1c9be" />
        </linearGradient>
      </defs>
<g><path style="opacity:0.989" fill="#cf87fc" d="M 247.5,-0.5 C 252.833,-0.5 258.167,-0.5 263.5,-0.5C 266.774,0.879972 270.107,2.37997 273.5,4C 303.392,33.8362 339.058,53.5028 380.5,63C 397.405,66.0518 414.405,68.3852 431.5,70C 453.182,76.3494 466.682,90.516 472,112.5C 473.945,154.159 473.945,195.826 472,237.5C 463.856,375.605 394.689,466.938 264.5,511.5C 258.5,511.5 252.5,511.5 246.5,511.5C 116.607,467.191 47.4402,376.191 39,238.5C 37.0543,196.492 37.0543,154.492 39,112.5C 44.3177,90.516 57.8177,76.3494 79.5,70C 112.092,68.4823 143.425,61.4823 173.5,49C 197.326,37.5012 218.659,22.5012 237.5,4C 240.893,2.37997 244.226,0.879972 247.5,-0.5 Z M 243.5,128.5 C 297.922,126.287 339.089,148.287 367,194.5C 391.066,243.672 387.066,290.338 355,334.5C 318.373,376.595 272.873,390.762 218.5,377C 166.708,358.533 136.874,322.033 129,267.5C 126.301,213.053 148.135,171.886 194.5,144C 210.026,135.878 226.359,130.712 243.5,128.5 Z M 297.5,212.5 C 313.718,211.865 319.551,219.199 315,234.5C 290.5,259 266,283.5 241.5,308C 235.833,311.333 230.167,311.333 224.5,308C 214.333,297.833 204.167,287.667 194,277.5C 190.042,270.079 191.209,263.579 197.5,258C 203.167,254.667 208.833,254.667 214.5,258C 220.167,263.667 225.833,269.333 231.5,275C 232.167,275.667 232.833,275.667 233.5,275C 254.424,253.574 275.757,232.741 297.5,212.5 Z"/></g>
<g><path style="opacity:0.977" fill="url(#MyGradient)" d="M 245.5,157.5 C 296.068,156.016 330.568,178.683 349,225.5C 360.029,266.898 349.862,302.064 318.5,331C 282.775,357.52 245.109,360.52 205.5,340C 171.184,317.534 155.35,285.7 158,244.5C 164.301,203.723 186.801,176.223 225.5,162C 232.259,160.285 238.925,158.785 245.5,157.5 Z M 297.5,212.5 C 275.757,232.741 254.424,253.574 233.5,275C 232.833,275.667 232.167,275.667 231.5,275C 225.833,269.333 220.167,263.667 214.5,258C 208.833,254.667 203.167,254.667 197.5,258C 191.209,263.579 190.042,270.079 194,277.5C 204.167,287.667 214.333,297.833 224.5,308C 230.167,311.333 235.833,311.333 241.5,308C 266,283.5 290.5,259 315,234.5C 319.551,219.199 313.718,211.865 297.5,212.5 Z"/></g>
</svg>
