<?xml version="1.0" encoding="UTF-8"?>
<!DOCTYPE svg PUBLIC "-//W3C//DTD SVG 1.1//EN" "http://www.w3.org/Graphics/SVG/1.1/DTD/svg11.dtd">
<svg xmlns="http://www.w3.org/2000/svg" version="1.1" width="512px" height="512px" style="shape-rendering:geometricPrecision; text-rendering:geometricPrecision; image-rendering:optimizeQuality; fill-rule:evenodd; clip-rule:evenodd" xmlns:xlink="http://www.w3.org/1999/xlink">
<defs>
        <linearGradient id="MyGradient">
          <stop  stop-color="#cf87fc" />
          <stop offset="100%" stop-color="#f1c9be" />
        </linearGradient>
      </defs>
<g><path style="opacity:0.961" fill="#cf87fc" d="M 229.5,-0.5 C 247.5,-0.5 265.5,-0.5 283.5,-0.5C 321.78,6.05597 354.613,23.056 382,50.5C 388.092,64.6114 383.759,73.2781 369,76.5C 366.044,76.0531 363.211,75.2197 360.5,74C 315.929,31.4831 264.262,19.8164 205.5,39C 185.294,46.9285 167.628,58.5951 152.5,74C 142.395,78.3526 134.561,75.8526 129,66.5C 127.909,60.9031 128.576,55.5698 131,50.5C 158.385,23.0571 191.218,6.05713 229.5,-0.5 Z"/></g>
<g><path style="opacity:0.959" fill="#cf87fc" d="M 242.5,57.5 C 280.597,54.0289 313.097,65.6956 340,92.5C 346.33,106.507 341.997,115.173 327,118.5C 323.633,117.867 320.467,116.7 317.5,115C 289.886,88.7845 258.22,82.4512 222.5,96C 218.007,98.079 213.674,100.412 209.5,103C 203.5,107.667 197.5,112.333 191.5,117C 179.058,119.566 171.725,114.566 169.5,102C 170.715,94.7776 174.382,89.1109 180.5,85C 198.676,70.076 219.342,60.9093 242.5,57.5 Z"/></g>
<g><path style="opacity:0.953" fill="url(#MyGradient)" d="M 253.5,111.5 C 270.624,111.403 285.624,116.903 298.5,128C 305.8,135.76 306.3,143.926 300,152.5C 295.098,156.18 289.598,157.347 283.5,156C 278.249,153.089 273.249,149.756 268.5,146C 260.5,142.667 252.5,142.667 244.5,146C 239.751,149.756 234.751,153.089 229.5,156C 217.337,158.094 210.337,153.094 208.5,141C 209.149,133.365 212.816,127.699 219.5,124C 229.783,116.679 241.116,112.513 253.5,111.5 Z"/></g>
<g><path style="opacity:0.978" fill="url(#MyGradient)" d="M 245.5,206.5 C 285.482,203.908 316.315,219.241 338,252.5C 352.725,280.733 354.392,309.733 343,339.5C 338.24,349.36 332.24,358.36 325,366.5C 319.667,370.5 315,375.167 311,380.5C 309.559,397.11 309.059,413.777 309.5,430.5C 296.833,430.5 284.167,430.5 271.5,430.5C 271.333,402.498 271.5,374.498 272,346.5C 283.333,335.167 294.667,323.833 306,312.5C 312.784,299.51 309.117,291.177 295,287.5C 291.616,288.072 288.449,289.239 285.5,291C 275.986,300.681 266.319,310.181 256.5,319.5C 246.681,310.181 237.014,300.681 227.5,291C 218.596,285.638 211.096,287.138 205,295.5C 202.528,301.591 203.195,307.258 207,312.5C 218.333,323.833 229.667,335.167 241,346.5C 241.5,374.498 241.667,402.498 241.5,430.5C 228.833,430.5 216.167,430.5 203.5,430.5C 203.941,413.777 203.441,397.11 202,380.5C 195.024,373.856 188.357,366.856 182,359.5C 160.92,330.127 156.587,298.46 169,264.5C 184.058,231.262 209.558,211.928 245.5,206.5 Z"/></g>
<g><path style="opacity:0.956" fill="url(#MyGradient)" d="M 203.5,459.5 C 238.833,459.5 274.167,459.5 309.5,459.5C 307.545,484.251 294.878,500.751 271.5,509C 243.179,515.084 222.013,505.584 208,480.5C 205.075,473.801 203.575,466.801 203.5,459.5 Z"/></g>
</svg>
